<svg xmlns="http://www.w3.org/2000/svg" viewBox="0 0 300 400"><defs><style>.cls-1{opacity:0.6;}.cls-2{opacity:0.66;}.cls-3{fill:#27368b;}.cls-4{fill:#d9fffe;}.cls-5,.cls-8{fill:#fff;}.cls-6,.cls-7{fill:none;}.cls-6,.cls-8{stroke:#000;stroke-width:1.39px;}.cls-6,.cls-7,.cls-8{stroke-miterlimit:10;}.cls-7{stroke:#27368b;stroke-width:1.1px;}</style></defs><g id="Layer_1" data-name="Layer 1"><g class="cls-1"><g class="cls-2"><g class="cls-2"><rect class="cls-3" x="0.62" y="6.73" width="298.77" height="48.96"/></g><g class="cls-2"><rect class="cls-3" x="0.62" y="72.75" width="298.77" height="48.96"/></g><g class="cls-2"><rect class="cls-3" x="0.61" y="138.76" width="298.77" height="48.96"/></g><g class="cls-2"><rect class="cls-3" x="0.61" y="204.78" width="298.77" height="48.96"/></g><g class="cls-2"><rect class="cls-3" x="0.61" y="270.8" width="298.77" height="48.96"/></g><g class="cls-2"><rect class="cls-3" x="0.61" y="336.81" width="298.77" height="48.96"/></g></g><g class="cls-2"><rect class="cls-4" x="60.71" y="171.77" width="400" height="48.96" transform="translate(456.96 -64.46) rotate(90)"/><rect class="cls-4" x="-13.35" y="171.77" width="400" height="48.96" transform="translate(382.9 9.6) rotate(90)"/><rect class="cls-4" x="-87.42" y="171.77" width="400" height="48.96" transform="translate(308.83 83.67) rotate(90)"/><rect class="cls-4" x="-161.48" y="171.77" width="400" height="48.96" transform="translate(234.77 157.73) rotate(90)"/></g></g><path class="cls-5" d="M7,341s2-29,3-33c0,0,7.74-48.23,9-52s6-19,6-19l15-11,55-22v-6s1.26-28.23,0-32-9.52-30.2-7-33c9-10,25.42-43.43,30.45-43.43s11.29-1.25,17.57-2.51,20.09-1.25,30.13,2.51S181.23,104.47,185,112c3,6,1,22-3,36-.27,1,11,2.48,11,4,0,7.53-3,2-3,5,0,5.17-7,11-9,12-1.26.63-2.48,7.43-3,9-1.26,3.77-11,23-15,31,0,0,16,1,26,5,18.5,7.4,25.49,20.74,28,22s6.49,17.49,9,20,5,12,6,16c.73,2.91,5,15,5,15l10,28,41,85L12,403Z"/><path class="cls-6" d="M11.9,392S2,341.18,11.9,289.3s8.83-50.78,24.29-60.72,47.47-19.87,53-22.08,6.62-1.1,6.62-14.35-.55-25.94-.55-25.94-3.31-4.41-3.31-6.62-1.11-4.42-1.11-8.83H84.21c-4.42,0-8.83-2.21-6.62-12.15s17.66-13.24,17.66-13.24,1.1-12.15,9.93-25.39S127.26,79,146,80.1s28.7,12.15,33.12,19.88,11,22.07,6.62,35.32-4.41,12.14-4.41,12.14l12.14,4.42v2.21a8.19,8.19,0,0,0-3.31,3.31c-1.11,2.21-3.31,9.94-8.83,12.14,0,0-7.73,19.87-11,26.5s-5.52,12.14-7.73,12.14,11,1.1,16.56,2.21,32,7.73,43,35.32,23.18,69.55,29.81,80.59,32,65.13,32,65.13"/><path class="cls-6" d="M25.7,245.69s14.35,5.52,22.08,18.77S72.07,302,73.17,309.72a45.54,45.54,0,0,0,6.62,17.67c2.21,3.31,5.52,8.83,2.21,15.45s-7.73,19.87-5.52,22.08,3.31,2.21,3.31,5.52"/><path class="cls-6" d="M52.2,392.52s17.66-7.73,22.07-12.15"/><path class="cls-6" d="M87.52,377.06s2.21,13.25-4.41,19.87"/><path class="cls-6" d="M82.44,377.51s.09,13.43-7.49,18.92"/><path class="cls-6" d="M61,377.06s7.72,2.21,12.14,0"/><path class="cls-6" d="M95.25,129.78s1.1-1.1,6.62-1.1S126.16,132,126.16,132s21,2.21,33.12,11c3.31,1.1,3.31,2.21,7.72,2.21s8.84,0,14.36,2.2"/><path class="cls-6" d="M96.35,132s-2.2-3.31,12.15,0,16.56,2.21,16.56,4.41S121.74,150.76,124,153s13.25,7.73,17.66,7.73,6.63,1.11,9.94-3.31,6.62-9.94,7.73-9.94,3.31-1.1,3.31,1.11,1.1,14.35,2.21,15.45,2.2,4.42,8.83,5.52a22.62,22.62,0,0,0,7.73,0"/><path class="cls-6" d="M129.47,138.61s12.14-7.72,18.77,4.42"/><path class="cls-6" d="M136,136.32s-2.11,3.4,4.51,4.5c2.21,0,2.29-2.76,2.29-2.76"/><path class="cls-6" d="M167,149.65s2.21-3.31,7.73-2.21,4.42,2.21,4.42,5.52"/><path class="cls-6" d="M169.21,148.55l2.21,1.1c2.21,1.11,3.31,1.11,3.31-2.21"/><path class="cls-6" d="M129.47,141.92s9.94,5.52,16.56,3.32"/><path class="cls-6" d="M167.56,152.41s5.52,3.31,8.83,3.31"/><path class="cls-6" d="M156,168.42s0-1.1-3.32-2.21-5.52,0-4.41,1.11,2.21,1.1,4.41,1.1Z"/><path class="cls-6" d="M160.53,170.9s1.9-2.48,3-2.63S166.15,171.26,160.53,170.9Z"/><path class="cls-6" d="M143.82,161.8s-3.31,6.62,3.31,7.72,4.42,1.11,4.42,1.11"/><path class="cls-6" d="M154.31,170.07a2.16,2.16,0,0,0,2.21,2.21"/><path class="cls-6" d="M160.93,172.28a5.31,5.31,0,0,0,4.42,0,3.91,3.91,0,0,0,2.21-3.31"/><path class="cls-6" d="M158.73,190c2.38-.65,3.31-4.42,3.31-4.42l-2.21-4.42h-4.42c-1.1,0-1.1-1.1-3.31,0S140,183.32,140,183.32s4.51,3.15,6.62,4.42C149.34,189.39,152.65,191.6,158.73,190Z"/><path class="cls-6" d="M141.45,183.68s5.68.19,7.89.19,3.31,2.21,5.52,2.21h4.42l3.31-1.1"/><path class="cls-6" d="M119.54,111s-11,6.63-12.15,8.84,1.4,7.72,1.81,8.83"/><path class="cls-6" d="M115.12,111s-11,6.63-12.14,8.84,1.4,7.72,1.8,8.83"/><path class="cls-6" d="M110.7,111s-11,6.63-12.14,8.84,1.4,7.72,1.8,8.83"/><path class="cls-6" d="M108.5,132c0,2.21,0,2.21-1.11,4.41s-2.21,7.73-2.21,11a14,14,0,0,1-2.2,6.63"/><path class="cls-6" d="M105.18,132c0,2.21,0,2.21-1.1,4.41s-2.21,7.73-2.21,11a14,14,0,0,1-2.21,6.63"/><path class="cls-6" d="M101.87,132c0,2.21,0,2.21-1.1,4.41s-2.21,7.73-2.21,11v3.32"/><path class="cls-6" d="M138.3,172.83l-2.21,1.11"/><path class="cls-6" d="M152.65,134.2,156,132s-13.14-9.25-16.56-9.94c-5.52-1.1-13.25,3.32-13.25,3.32s0,1.1,11,2.2S152.65,134.2,152.65,134.2Z"/><path class="cls-6" d="M171.42,138.61l2.21-2.21s7.73,0,9.93,2.21-1.1,3.31-1.1,3.31Z"/><path class="cls-6" d="M79.79,210.37c-3.31,1.1,3.32,6.62,12.15,12.14S110.7,238,125.06,239.07s28.18-3,33.11-5.52c15.46-7.73,8.83-21,4.42-25.39"/><line class="cls-7" x1="80.2" y1="213.65" x2="86.27" y2="211.31"/><line class="cls-7" x1="82.41" y1="215.86" x2="88.48" y2="213.52"/><line class="cls-7" x1="84.62" y1="218.07" x2="90.69" y2="215.73"/><line class="cls-6" x1="102.05" y1="229.56" x2="105.83" y2="225.45"/><line class="cls-6" x1="105.36" y1="231.77" x2="109.15" y2="227.66"/><line class="cls-6" x1="108.67" y1="233.98" x2="112.46" y2="229.87"/><path class="cls-6" d="M98.56,185s9.94,17.66,14.35,22.08c12.15,12.14,13.25,15.45,23.18,15.45s22.08-2.21,24.29-11c1.2-4.79,1.11,11-2.21,15.46s-18.76,6.62-33.11,5.52-24.29-11-33.12-16.56-5.52-5.52-2.21-6.63"/><line class="cls-6" x1="110.7" y1="261.15" x2="175.84" y2="345.05"/><line class="cls-6" x1="114.02" y1="243.49" x2="226.07" y2="354.43"/><path d="M121.19,108.25s12.14-4.41,15.46-3.31a17.31,17.31,0,0,0,4.41,1.11v-2.21a52.42,52.42,0,0,1,16.56,3.31c8.83,3.31,22.08,12.14,22.08,12.14v4.42s1.1,0,3.31,2.21,2.21,6.62,2.21,6.62l1.1.9.9-8.18a39.24,39.24,0,0,0-1.32-9.21c-1.23-3.93-5.65-15-6.75-16.07s-8.32-11.84-13-13.65-12.4-6.23-19-6.23-15.45-.16-21,2.68-15.68,8.8-20,15.76-10,18.88-10.85,26.14c-.08.69-6.21,2.78-9.77,4.49s-8.92,7.23-8.44,12.2.38,7.12,4.62,9.11c2.6,1.22,3.56,1.23,3.92,1.07a1,1,0,0,1,.79,0c1.24.55,4.08,1.69,4.94.83,1.1-1.1,0-3.31-.56-5-.49-1.48-3.31-11-2.2-14.35.7-2.1,3.19-3.76,5.47-4.69a5.8,5.8,0,0,0,3.39-5.59c-.23-2.75.59-3.71,5.49-7.38C107.39,112.12,121.19,108.25,121.19,108.25Z"/><path class="cls-8" d="M141.61,95.56s26.5,5.52,34.23,12.14c0,0,2.2-1.1-1.11-7.72s-6.62-11-8.83-12.15-8.83-4.41-14.35-2.21S141.61,95.56,141.61,95.56Z"/><line class="cls-6" x1="148.24" y1="88.8" x2="148.24" y2="91.14"/><path class="cls-6" d="M164.2,101.85s2.8-9.6,1.7-14"/><path class="cls-6" d="M162,100.75s2.81-9.61,1.7-14"/><path class="cls-6" d="M159.78,99.64s2.81-9.6,1.71-14"/><path class="cls-6" d="M157.57,98.54s3.23-9.23,2-13.47"/><path class="cls-6" d="M155.36,97.43s3.24-8.46,2-12.36"/><path class="cls-6" d="M153.16,96.33s3.23-7.71,2-11.26"/><path class="cls-6" d="M166.4,100.75S169,95,168.11,90"/><path class="cls-6" d="M168.61,99.64s3.23-4.69,2-6.84"/><path class="cls-6" d="M170.82,99.64s1.65-3.17,1-4.63"/><path class="cls-6" d="M151,95.23s1.65-7,1-10.16"/><path class="cls-6" d="M149.34,92.25s1.36-1.11.68-5.52"/><line class="cls-6" x1="107.39" y1="155.17" x2="102.98" y2="159.59"/><line class="cls-6" x1="101.87" y1="161.8" x2="97.46" y2="166.21"/><line class="cls-6" x1="111.81" y1="165.11" x2="107.39" y2="169.52"/><line class="cls-6" x1="108.5" y1="161.8" x2="104.08" y2="166.21"/><line class="cls-6" x1="101.87" y1="167.32" x2="97.46" y2="171.73"/><line class="cls-6" x1="104.08" y1="170.63" x2="99.66" y2="175.04"/><line class="cls-6" x1="112.91" y1="169.52" x2="108.5" y2="173.94"/><line class="cls-6" x1="107.39" y1="176.15" x2="102.98" y2="180.56"/><line class="cls-6" x1="117.33" y1="179.46" x2="112.91" y2="183.87"/><line class="cls-6" x1="114.02" y1="176.15" x2="109.6" y2="180.56"/><line class="cls-6" x1="107.39" y1="181.67" x2="102.98" y2="186.08"/><line class="cls-6" x1="109.6" y1="184.98" x2="105.18" y2="189.39"/><line class="cls-6" x1="119.84" y1="181.48" x2="115.79" y2="186.23"/><line class="cls-6" x1="114.86" y1="188.52" x2="110.82" y2="193.28"/><line class="cls-6" x1="125.03" y1="191.03" x2="120.98" y2="195.78"/><line class="cls-6" x1="121.47" y1="187.99" x2="117.42" y2="192.75"/><line class="cls-6" x1="115.31" y1="194.02" x2="111.26" y2="198.78"/><line class="cls-6" x1="117.77" y1="197.15" x2="113.72" y2="201.9"/><line class="cls-6" x1="127.57" y1="193.47" x2="124.06" y2="198.63"/><line class="cls-6" x1="123.38" y1="201" x2="119.87" y2="206.16"/><line class="cls-6" x1="133.76" y1="202.41" x2="130.24" y2="207.57"/><line class="cls-6" x1="129.89" y1="199.77" x2="126.37" y2="204.93"/><line class="cls-6" x1="124.41" y1="206.43" x2="120.89" y2="211.59"/><line class="cls-6" x1="127.2" y1="209.27" x2="123.68" y2="214.43"/><line class="cls-6" x1="143.82" y1="191.6" x2="144.93" y2="190.5"/><line class="cls-6" x1="146.58" y1="194.28" x2="146.72" y2="191.39"/><line class="cls-6" x1="157.62" y1="195.38" x2="157.76" y2="192.49"/><line class="cls-6" x1="127.26" y1="189.39" x2="131.68" y2="183.87"/><line class="cls-6" x1="130.58" y1="181.67" x2="134.99" y2="179.46"/><line class="cls-6" x1="133.89" y1="184.98" x2="137.2" y2="180.56"/><line class="cls-6" x1="137.2" y1="177.25" x2="141.61" y2="175.04"/><line class="cls-6" x1="164.8" y1="180.56" x2="167" y2="181.67"/><line class="cls-6" x1="164.8" y1="183.87" x2="167" y2="187.19"/><line class="cls-6" x1="149.34" y1="193.81" x2="148.24" y2="199.33"/><line class="cls-6" x1="152.65" y1="194.91" x2="151.55" y2="200.43"/><line class="cls-6" x1="155.97" y1="193.81" x2="154.86" y2="199.33"/><line class="cls-6" x1="153.76" y1="203.74" x2="152.65" y2="210.37"/><line class="cls-6" x1="155.94" y1="202.65" x2="157.1" y2="209.26"/><line class="cls-6" x1="149.34" y1="203.74" x2="148.24" y2="210.37"/><line class="cls-6" x1="144.93" y1="203.74" x2="143.82" y2="210.37"/><line class="cls-6" x1="152.65" y1="212.58" x2="151.55" y2="219.2"/><line class="cls-6" x1="148.24" y1="212.58" x2="147.13" y2="219.2"/><line class="cls-6" x1="143.82" y1="212.58" x2="142.72" y2="219.2"/><line class="cls-6" x1="139.41" y1="203.74" x2="138.3" y2="210.37"/><line class="cls-6" x1="132.78" y1="209.26" x2="131.68" y2="215.89"/><line class="cls-6" x1="129.47" y1="211.47" x2="128.37" y2="218.1"/><line class="cls-6" x1="134.99" y1="212.58" x2="133.89" y2="219.2"/><line class="cls-6" x1="138.3" y1="213.68" x2="137.2" y2="220.3"/><line class="cls-6" x1="164.8" y1="188.29" x2="167" y2="194.91"/><line class="cls-6" x1="162.59" y1="191.6" x2="164.8" y2="198.23"/><line class="cls-6" x1="160.38" y1="194.91" x2="162.59" y2="201.54"/><line class="cls-6" x1="158.17" y1="198.23" x2="160.38" y2="204.85"/><line class="cls-6" x1="146.03" y1="173.94" x2="141.61" y2="179.46"/><line class="cls-6" x1="149.34" y1="173.94" x2="144.93" y2="179.46"/><line class="cls-6" x1="152.65" y1="173.94" x2="148.24" y2="179.46"/><line class="cls-6" x1="155.97" y1="173.94" x2="151.55" y2="179.46"/><line class="cls-6" x1="168.44" y1="180.26" x2="163.36" y2="175.34"/><line class="cls-6" x1="163.33" y1="180.82" x2="159.64" y2="174.79"/><line class="cls-6" x1="171.05" y1="189.65" x2="167.37" y2="183.62"/><path class="cls-6" d="M98.56,380.45s50.78,2.21,68.44,8.83l17.66,6.62"/></g><g id="Layer_4" data-name="Layer 4"><circle class="cls-3" cx="78.32" cy="201.37" r="1.37"/><circle class="cls-3" cx="52.32" cy="210.37" r="1.37"/><circle class="cls-3" cx="68.32" cy="170.37" r="1.37"/><circle class="cls-3" cx="54.32" cy="191.37" r="1.37"/><circle class="cls-3" cx="88.32" cy="186.37" r="1.37"/><circle class="cls-3" cx="67.32" cy="200.37" r="1.37"/><circle class="cls-3" cx="33.32" cy="193.37" r="1.37"/><circle class="cls-3" cx="27.32" cy="210.37" r="1.37"/><circle class="cls-3" cx="22.32" cy="169.37" r="1.37"/><circle class="cls-3" cx="46.32" cy="165.37" r="1.37"/><circle class="cls-3" cx="49.32" cy="142.37" r="1.37"/></g></svg>