<svg xmlns="http://www.w3.org/2000/svg" viewBox="0 0 300 400"><defs><style>.cls-1{opacity:0.6;}.cls-2{opacity:0.66;}.cls-3{fill:#27368b;}.cls-4{fill:#d9fffe;}.cls-5{fill:#fff;}.cls-10,.cls-11,.cls-6,.cls-7,.cls-8,.cls-9{fill:none;stroke:#000;stroke-miterlimit:10;}.cls-6{stroke-width:1.26px;}.cls-7{stroke-width:1.18px;}.cls-8{stroke-width:1.16px;}.cls-9{stroke-width:1.07px;}.cls-10{stroke-width:0.13px;}.cls-11{stroke-width:0.94px;}</style></defs><g id="Layer_1" data-name="Layer 1"><g class="cls-1"><g class="cls-2"><g class="cls-2"><rect class="cls-3" x="1" y="10.48" width="298.77" height="48.96"/></g><g class="cls-2"><rect class="cls-3" x="1" y="76.5" width="298.77" height="48.96"/></g><g class="cls-2"><rect class="cls-3" x="1" y="142.51" width="298.77" height="48.96"/></g><g class="cls-2"><rect class="cls-3" x="1" y="208.53" width="298.77" height="48.96"/></g><g class="cls-2"><rect class="cls-3" x="1" y="274.55" width="298.77" height="48.96"/></g><g class="cls-2"><rect class="cls-3" x="1" y="340.56" width="298.77" height="48.96"/></g></g><g class="cls-2"><rect class="cls-4" x="61.1" y="175.52" width="400" height="48.96" transform="translate(461.1 -61.1) rotate(90)"/><rect class="cls-4" x="-12.97" y="175.52" width="400" height="48.96" transform="translate(387.03 12.97) rotate(90)"/><rect class="cls-4" x="-87.03" y="175.52" width="400" height="48.96" transform="translate(312.97 87.03) rotate(90)"/><rect class="cls-4" x="-161.1" y="175.52" width="400" height="48.96" transform="translate(238.9 161.1) rotate(90)"/></g></g><path class="cls-5" d="M20.7,339.33s0-3.77,10-13.81c14.78-14.78,39.74-41.8,71.56-56.49,0,0-1.26,0,0-3.76a102.44,102.44,0,0,0,3.76-13.81c1.26-6.28,6.28-7.54,6.28-7.54l3.77,1.26h2.51l-1.26-6.28-8.79-17.57L101,217.56s-8.79-6.27-10-10-5-13.81-5-17.58-1.26-2.51-1.26-5S88.49,132.2,96,124.67s25.11-21.34,30.13-21.34,11.3-1.26,17.57-2.51,20.09-1.26,30.13,2.51,26.36,16.32,30.13,23.85,10,21.34,10,28.87,1.26,5,0,13.81-6.27,21.34-7.53,25.11,0,13.8-1.25,21.34-5,20.08-10.05,27.61-8.79,13.81-7.53,17.58,1.26,3.77,5,5S214,269,216.53,270.29s16.32,7.53,18.83,10l5,5c2.52,2.51,11.3,20.09,11.3,20.09L260,326l11,74H20Z"/><path class="cls-6" d="M177,270.31c-6.28,5-20.09,0-26.36-1.25S131.8,256.5,124.27,249s-15.07-27.62-15.07-27.62-12.55-5-16.32-11.29-11.3-21.35-6.27-49,3.76-37.66,12.55-47.71S123,98.33,134.31,100.84c6.27,1.26,13.81-1.25,22.59-1.25s27.62,5,40.18,18.83,17.57,32.63,17.57,43.93-8.79,35.15-8.79,35.15,0,16.32-1.25,23.85-5,16.32-8.79,21.34S187,257.76,187,260.27s3.77,6.28,3.77,6.28,17.57,2.51,23.85,3.76,20.09,8.79,25.11,13.81,17.3,34,20.08,42.68c5.66,17.7,10.66,73.7,10.66,73.7"/><path class="cls-6" d="M99.16,187.46s-2.51-23.85,7.53-40.17,23.85-28.87,38.92-31.39,38.91-1.25,48.95,15.07,12.56,25.11,12.56,43.94"/><path class="cls-6" d="M125.52,179.93s21.34-6.28,36.41,0c5,0-1.89-5.18-6.28-6.28a37.29,37.29,0,0,0-18.62,0C127.47,176.19,122.26,178.3,125.52,179.93Z"/><path class="cls-6" d="M185.78,179.93s2.51,2.51,7.53,0a25,25,0,0,1,10-2.51s6.28-5,0-5S180.76,173.65,185.78,179.93Z"/><path class="cls-6" d="M133.05,186.2s11.3-10,25.11,1.26"/><path class="cls-6" d="M180.76,187.46a21.07,21.07,0,0,1,15.06-3.77c2.51,0,3.77,3.77,3.77,3.77"/><ellipse class="cls-6" cx="143.1" cy="185.58" rx="3.77" ry="3.14"/><path class="cls-6" d="M184.83,185.58s.95,3.13,3.46,3.13,3.9.57,5,0c2.51-1.25,1.25-5,0-5"/><path class="cls-6" d="M161.93,207.54s-7.54,8.79,1.25,11.3,5,5,11.3,5,7.53-1.25,11.3-5,0-7.53,0-8.78"/><path class="cls-6" d="M187,227.63h-6.27c-2.51,0-6.28,1.26-8.79,1.26s-3.77-1.26-8.79-1.26H143.1s10,12.55,16.32,15.06,8.78,3.77,13.8,2.51,8.79-3.76,10.05-6.27S187,227.63,187,227.63Z"/><path class="cls-6" d="M154.39,230.14s6.28-1.25,10.05,0a24.37,24.37,0,0,0,8.78,1.26,44.4,44.4,0,0,0,7.54-1.26"/><path class="cls-6" d="M158.16,236.42s7.53,3.76,12.55,3.76,8.79-3.76,8.79-3.76"/><path class="cls-6" d="M116.73,245.2s-3.76-2.51-6.27,0-5,5-5,10.05-3.77,7.53-3.77,10,43.94,41.43,46.45,46.45a20.92,20.92,0,0,0,6.27,7.53s5-7.53,3.77-11.3-11.3-18.83-8.79-18.83,5-2.51,5,1.26,5,17.57,8.79,18.83,6.28,0,11.3,3.76,15.06,33.9,15.06,33.9"/><path class="cls-6" d="M207.12,374.51s-10-64-11.3-65.28-5-2.51-6.28-6.28,1.26-12.55,0-15.06-1.25-2.51,1.26-2.51,2.51,8.78,3.76,10,6.28,7.53,10.05,7.53,5,0,3.76-2.51-6.27-10-8.78-15.06"/><path class="cls-6" d="M96.65,129.71s-1.26,11.3,0,13.81,2.51,6.28,7.53,6.28"/><path class="cls-6" d="M101.67,123.44s-1.26,11.29,0,13.81,2.51,6.27,7.53,6.27"/><path class="cls-7" d="M107.79,116.53s-1.07,11.65,0,14.24,2.15,6.48,6.43,6.48"/><path class="cls-8" d="M111.65,114s-1.27,9.53,0,11.65,2.53,5.3,7.59,5.3"/><path class="cls-9" d="M116.67,110.26s-1.27,8.12,0,9.92,2.53,4.51,7.6,4.51"/><path class="cls-9" d="M123,106.49s-1.27,8.12,0,9.92,2.53,4.52,7.59,4.52"/><path class="cls-9" d="M128,105.23s.05,6.36,1.32,8.16,2.51,5,6.27,6.28"/><path class="cls-6" d="M92.88,138.5s-1.25,11.3,0,13.81,2.51,6.28,7.53,6.28"/><path class="cls-6" d="M97.9,167.37c-5,0-6.27-3.76-7.53-6.27s0-13.81,0-13.81"/><path class="cls-6" d="M87.86,156.08s-1.25,11.29,0,13.8,2.51,6.28,7.53,6.28"/><path class="cls-6" d="M86.61,163.61s-1.26,11.3,0,13.81,2.51,6.27,7.53,6.27"/><path class="cls-6" d="M85.35,173.65s-1.26,11.3,0,13.81,2.51,6.28,7.53,6.28"/><path class="cls-9" d="M207.12,183.69a3.56,3.56,0,0,0,3.74-1.6"/><path class="cls-9" d="M207.12,179.93a3.56,3.56,0,0,0,3.74-1.61"/><path class="cls-9" d="M207.12,176.16a3.56,3.56,0,0,0,3.74-1.6"/><path class="cls-9" d="M207.12,172.4a3.56,3.56,0,0,0,3.74-1.61"/><path class="cls-9" d="M207.12,168.63a3.56,3.56,0,0,0,3.74-1.6"/><path class="cls-9" d="M207.12,164.86a3.56,3.56,0,0,0,3.74-1.6"/><path class="cls-9" d="M207.12,161.1a3.56,3.56,0,0,0,3.74-1.61"/><path class="cls-9" d="M207.12,157.33a3.56,3.56,0,0,0,3.74-1.6"/><path class="cls-9" d="M207.12,153.56a3.54,3.54,0,0,0,3.74-1.6"/><path class="cls-9" d="M207.12,149.8a3.56,3.56,0,0,0,3.74-1.6"/><path class="cls-9" d="M207.12,146a3.56,3.56,0,0,0,3.74-1.6"/><path d="M158.16,118.42s-1.26,0-5,6.27-6.28,3.77-2.51-1.25,3.76-8.79,0-3.77-8.79,5-6.28,3.77,1.26-5,1.26-5c-2.51-2.52-1.26-15.07-1.26-15.07s-1.25-1.25-3.77,3.77,2.52,15.06-1.25,13.81-5-16.32-6.28-8.79,2.51,11.3-1.25,11.3-8.79-3.77-8.79-2.51,2.51,7.53,15.06,10c0,0,1.26,0,1.26-3.77s2.51-1.25,2.51,2.51,2.51-2.51,2.51-2.51-1.25,5,1.26,5-1.26-2.51,0-5,3.76,7.53,7.53,3.77S159.42,119.67,158.16,118.42Z"/><path d="M178.25,122.18c-2.52,5-10.05,3.77-3.77,5s10-5,8.79-2.51S170.71,131,173.22,131,187,127.2,187,127.2l4.4-.62-11.67-7.75Z"/><path d="M173.22,119.67s1.26-8.79-1.25-12.55c0,0,0,11.3-2.51,12.55s0-1.25-1.26-7.53,0,5-2.51,7.53,1.26-6.28-2.51-8.79,1.26,6.28-3.76,10.05C159.42,120.93,167,124.69,173.22,119.67Z"/><path class="cls-9" d="M111.71,148.54s-12.55,7.54-10,40.17"/><path class="cls-9" d="M104.18,191.23c-2.51-32.64,10-40.18,10-40.18"/><path class="cls-9" d="M116.73,153.56s-12.55,7.54-10,40.18"/><path class="cls-9" d="M119.24,156.08s-12.55,7.53-10,40.17"/><line class="cls-9" x1="159.42" y1="247.72" x2="159.42" y2="248.97"/><line class="cls-9" x1="161.93" y1="249.6" x2="161.93" y2="250.85"/><line class="cls-9" x1="182.01" y1="245.83" x2="182.01" y2="247.09"/><line class="cls-9" x1="179.5" y1="248.34" x2="179.5" y2="249.6"/><line class="cls-9" x1="176.99" y1="250.85" x2="176.99" y2="252.11"/><line class="cls-9" x1="173.22" y1="252.11" x2="173.22" y2="253.36"/><line class="cls-9" x1="169.46" y1="252.11" x2="169.46" y2="253.36"/><line class="cls-9" x1="165.69" y1="252.11" x2="165.69" y2="253.36"/><line class="cls-9" x1="146.86" y1="221.35" x2="144.35" y2="223.86"/><line class="cls-9" x1="150.63" y1="221.35" x2="148.12" y2="223.86"/><line class="cls-9" x1="154.39" y1="221.35" x2="151.88" y2="223.86"/><line class="cls-9" x1="158.16" y1="221.35" x2="155.65" y2="223.86"/><line class="cls-9" x1="161.93" y1="221.35" x2="159.42" y2="223.86"/><line class="cls-9" x1="165.69" y1="221.35" x2="163.18" y2="223.86"/><path class="cls-6" d="M192.05,217.59s2.51,3.76,2.51,6.27-2.51,10-2.51,10"/><line class="cls-6" x1="189.54" y1="221.35" x2="192.05" y2="223.86"/><line class="cls-6" x1="187.03" y1="221.35" x2="189.54" y2="223.86"/><line class="cls-9" x1="185.15" y1="221.98" x2="187.03" y2="223.86"/><line class="cls-9" x1="183.89" y1="223.24" x2="184.52" y2="223.86"/><path class="cls-9" d="M156.9,211.31s-15.06,8.79-16.32,12.55,1.26,12.56,1.26,12.56"/><path class="cls-10" d="M184.52,193.74s6.28,2.51,11.3,2.51,6.28,1.25,6.28,1.25"/><path class="cls-10" d="M158.16,191.23s-7.53,6.27-15.06,5A35.55,35.55,0,0,0,128,197.5"/><path class="cls-11" d="M183.89,189.34s10.05,2.51,13.81,0"/><path class="cls-11" d="M139.33,188.71c7.53,2.52,11.3,0,11.3,0"/><path class="cls-6" d="M101.67,269.06s-28.87,16.32-38.92,25.1-40.55,39.29-42.68,45.2C17.5,346.5,16.5,407.5,16.5,407.5"/><line class="cls-6" x1="117.99" y1="251.48" x2="117.99" y2="241.38"/><path d="M183.27,122.18c3.76-2.51,5-17.57,3.76-15.06s-6.27,13.81-6.27,13.81c2.51-3.77,3.76-26.37,2.51-25.11s-1.26,7.53-2.51,16.32-10,11.3-10,11.3Z"/><path d="M90.37,141s17.58-31.38,41.43-36.4c7.53-2.51,8.45-3.86,4.85-3.82s-17.66-2.57-28.2,5S91.63,122.18,90.37,141Z"/><path class="cls-6" d="M111.08,249.6s2.52,17.57,15.07,21.34,25.11,11.3,31.38,11.3,10,11.3,16.32,18.83"/></g><g id="Layer_4" data-name="Layer 4"><circle class="cls-3" cx="94.32" cy="265.37" r="1.37"/><circle class="cls-3" cx="92.32" cy="251.37" r="1.37"/><circle class="cls-3" cx="79.32" cy="257.37" r="1.37"/><circle class="cls-3" cx="57.32" cy="252.37" r="1.37"/><circle class="cls-3" cx="83.32" cy="217.37" r="1.37"/><circle class="cls-3" cx="53.32" cy="284.37" r="1.37"/><circle class="cls-3" cx="59.32" cy="216.37" r="1.37"/><circle class="cls-3" cx="63.32" cy="176.37" r="1.37"/><circle class="cls-3" cx="29.32" cy="234.37" r="1.37"/><circle class="cls-3" cx="73.32" cy="271.37" r="1.37"/><circle class="cls-3" cx="77.32" cy="238.37" r="1.37"/><circle class="cls-3" cx="96.32" cy="234.37" r="1.37"/></g></svg>